<svg width="306" height="350" viewBox="0 0 306 350" fill="none" xmlns="http://www.w3.org/2000/svg">
<path d="M98.5928 234.124C98.5947 253.343 98.5534 272.289 98.6493 291.234C98.6625 293.837 97.8361 295.264 95.5113 296.58C64.8534 313.933 34.2657 331.41 3.65995 348.855C0.407074 350.709 0.0776244 350.514 0.0771494 346.757C0.062718 232.171 0.0477949 117.586 0.0407126 3.00097C0.0406541 2.02839 -0.168949 1.00511 0.363589 0.196366C1.17167 -0.233786 1.71056 0.130532 2.26538 0.453C31.1549 17.2438 60.045 34.0334 88.9364 50.821C91.3758 52.2385 93.7792 53.7274 96.2835 55.0201C97.8717 55.8399 98.5565 57.0265 98.5656 58.7184C98.5789 61.1775 98.5857 63.6367 98.5861 66.0959C98.5908 99.8885 98.5555 133.681 98.6635 167.474C98.6732 170.476 97.6764 172.199 95.0299 173.407C92.7322 174.456 90.5149 175.734 88.3176 177.651C90.473 179.834 93.1516 180.997 95.681 182.215C97.9299 183.298 98.6297 184.735 98.6184 187.123C98.5447 202.699 98.588 218.275 98.5928 234.124ZM34.4464 61.1878C34.3673 61.8156 34.2195 62.4433 34.2188 63.0711C34.1887 93.668 34.1885 124.265 34.1195 154.862C34.114 157.293 35.1269 158.026 37.3972 158.006C45.0458 157.938 52.6955 157.995 60.3447 157.986C63.8799 157.982 64.4282 157.454 64.4466 153.835C64.4806 147.188 64.4578 140.54 64.4563 133.892C64.4522 116.135 64.4148 98.3778 64.4761 80.6209C64.4856 77.8842 63.6332 76.1138 61.1142 74.7242C53.1464 70.3287 45.3179 65.6807 37.4318 61.1368C36.571 60.6408 35.7061 59.9994 34.4464 61.1878ZM34.1672 283.039C34.1685 284.587 34.1315 286.136 34.1793 287.682C34.2635 290.404 34.9359 290.799 37.3113 289.464C45.4035 284.918 53.4519 280.293 61.5816 275.816C63.6774 274.661 64.5331 273.217 64.5 270.813C64.3858 262.53 64.4505 254.245 64.4485 245.96C64.4445 229.938 64.453 213.915 64.4306 197.892C64.4242 193.321 64.3256 193.255 59.8984 193.257C52.8885 193.259 45.8785 193.278 38.8686 193.274C34.3718 193.272 34.1517 193.474 34.152 198.104C34.1538 226.235 34.1605 254.366 34.1672 283.039Z" fill="url(#paint0_linear_3510_28)"/>
<path d="M152.718 126.939C148.22 125.496 147.415 122.433 147.536 118.217C147.822 108.207 147.61 98.1833 147.619 88.1652C147.62 87.2761 147.388 86.3418 148.33 84.8462C200.558 114.981 252.8 145.124 305.061 175.278C304.309 177.33 302.752 177.706 301.577 178.385C292.36 183.718 283.066 188.919 273.858 194.267C271.987 195.354 270.523 195.427 268.605 194.296C253.786 185.559 238.914 176.913 224.026 168.296C222.764 167.566 221.475 165.896 219.911 166.852C218.437 167.753 218.984 169.675 218.983 171.183C218.968 188.396 218.94 205.609 219.044 222.821C219.058 225.208 218.355 226.621 216.243 227.813C206.178 233.494 196.201 239.33 186.187 245.1C185.886 245.273 185.515 245.322 185.124 245.446C183.786 244.125 184.322 242.489 184.321 241.038C184.28 210.347 184.235 179.655 184.355 148.963C184.367 145.857 183.313 144.295 180.652 142.841C171.31 137.736 162.129 132.336 152.718 126.939Z" fill="url(#paint1_linear_3510_28)"/>
<path d="M105.639 264.738C105.639 196.825 105.639 129.186 105.639 61.7244C107.358 61.1264 108.137 61.8923 108.97 62.3677C118.305 67.6934 127.583 73.1214 136.989 78.319C139.482 79.6966 140.322 81.3239 140.319 84.1345C140.24 141.899 140.257 199.663 140.255 257.427C140.255 261.163 140.236 264.898 140.273 268.633C140.287 269.99 140.054 271.047 138.708 271.813C128.184 277.802 117.695 283.853 107.187 289.87C106.977 289.99 106.662 289.929 105.892 289.996C105.397 281.638 105.781 273.317 105.639 264.738Z" fill="url(#paint2_linear_3510_28)"/>
<defs>
<linearGradient id="paint0_linear_3510_28" x1="-0.32342" y1="-1.5" x2="145.738" y2="68.2089" gradientUnits="userSpaceOnUse">
<stop stop-color="#FE6A17"/>
<stop offset="1" stop-color="#FF971F"/>
</linearGradient>
<linearGradient id="paint1_linear_3510_28" x1="147.008" y1="84.1579" x2="223.202" y2="210.695" gradientUnits="userSpaceOnUse">
<stop stop-color="#FE6A17"/>
<stop offset="1" stop-color="#FF971F"/>
</linearGradient>
<linearGradient id="paint2_linear_3510_28" x1="105.515" y1="60.5262" x2="164.659" y2="75.7283" gradientUnits="userSpaceOnUse">
<stop stop-color="#FE6A17"/>
<stop offset="1" stop-color="#FF971F"/>
</linearGradient>
</defs>
</svg>
